#Comment line ignore any data following # character 
#Hierarchical Translation and Rotation (.htr) file 
[Header]	
#Header keywords are followed by a single value 
FileType HTR		#Single word string
DataType HTRS		#Translation followed by rotation and scale data
FileVersion 1		#integer
NumSegments 64		#integer
NumFrames 3		#integer
DataFrameRate 30		#integer, data frame rate in this file
EulerRotationOrder ZYX
CalibrationUnits mm
RotationUnits Degrees
GlobalAxisofGravity Y
BoneLengthAxis Y
ScaleFactor 1.00
[SegmentNames&Hierarchy]
#CHILD	PARENT
Pinger_Root GLOBAL
Pelvis Pinger_Root
L_Hip Pelvis
R_Hip Pelvis
Rear_Leg01 Pelvis
Spine1 Pelvis
L_Leg01 L_Hip
L_Leg02 L_Leg01
L_Leg03 L_Leg02
L_Foot L_Leg03
L_Toe1_01 L_Foot
L_Toe2_01 L_Foot
L_Toe3_01 L_Foot
planeAlignerLeft L_Foot
L_Toe1_02 L_Toe1_01
L_Toe1_03 L_Toe1_02
L_Toe2_02 L_Toe2_01
L_Toe2_03 L_Toe2_02
L_Toe3_02 L_Toe3_01
L_Toe3_03 L_Toe3_02
planeLockWeightLeft planeAlignerLeft
R_Leg01 R_Hip
R_Leg02 R_Leg01
R_Leg03 R_Leg02
R_Foot R_Leg03
planeAlignerRight R_Foot
R_Toe1_01 R_Foot
R_Toe2_01 R_Foot
R_Toe3_01 R_Foot
planeLockWeightRight planeAlignerRight
R_Toe1_02 R_Toe1_01
R_Toe1_03 R_Toe1_02
R_Toe2_02 R_Toe2_01
R_Toe2_03 R_Toe2_02
R_Toe3_02 R_Toe3_01
R_Toe3_03 R_Toe3_02
Rear_Leg02 Rear_Leg01
Rear_Leg03 Rear_Leg02
Rear_Leg04 Rear_Leg03
Rear_Foot Rear_Leg04
planeAlignerCenter Rear_Foot
Rear_Toe1_01 Rear_Foot
Rear_Toe2_01 Rear_Foot
Rear_Toe3_01 Rear_Foot
planeLockWeightCenter planeAlignerCenter
Rear_Toe1_02 Rear_Toe1_01
Rear_Toe1_03 Rear_Toe1_02
Rear_Toe2_02 Rear_Toe2_01
Rear_Toe2_03 Rear_Toe2_02
Rear_Toe3_02 Rear_Toe3_01
Rear_Toe3_03 Rear_Toe3_02
Back_Bone Spine1
Head Spine1
Motor_Bone Back_Bone
Ping_Mechanism Back_Bone
BN_LookIK Head
bottomMouth Head
L_Mouth01 Head
L_mouthFront Head
mouthGun Head
R_Mouth01 Head
R_mouthFront Head
TopMouth Head
weapon_bone Head
[BasePosition]
#SegmentName Tx, Ty, Tz, Rx, Ry, Rz, BoneLength
Pinger_Root 0.000000 0.000000 0.000000 -90.000000 0.000000 0.000000 10.000000 
Pelvis 0.000000 0.000000 0.000000 0.000000 0.000000 0.000000 10.000000 
L_Hip 0.000000 0.000000 0.000000 0.000000 0.000000 0.000000 10.000000 
R_Hip 0.000000 0.000000 0.000000 0.000000 0.000000 0.000000 10.000000 
Rear_Leg01 0.000000 0.000000 0.000000 0.000000 0.000000 0.000000 10.000000 
Spine1 0.000000 0.000000 0.000000 0.000000 0.000000 0.000000 10.000000 
L_Leg01 0.000000 0.000000 0.000000 0.000000 0.000000 0.000000 10.000000 
L_Leg02 0.000000 0.000000 0.000000 0.000000 0.000000 0.000000 10.000000 
L_Leg03 0.000000 0.000000 0.000000 0.000000 0.000000 0.000000 10.000000 
L_Foot 0.000000 0.000000 0.000000 0.000000 0.000000 0.000000 10.000000 
L_Toe1_01 0.000000 0.000000 0.000000 0.000000 0.000000 0.000000 10.000000 
L_Toe2_01 0.000000 0.000000 0.000000 0.000000 0.000000 0.000000 10.000000 
L_Toe3_01 0.000000 0.000000 0.000000 0.000000 0.000000 0.000000 10.000000 
planeAlignerLeft 0.000000 0.000000 0.000000 0.000000 0.000000 0.000000 10.000000 
L_Toe1_02 0.000000 0.000000 0.000000 0.000000 0.000000 0.000000 10.000000 
L_Toe1_03 0.000000 0.000000 0.000000 0.000000 0.000000 0.000000 10.000000 
L_Toe2_02 0.000000 0.000000 0.000000 0.000000 0.000000 0.000000 10.000000 
L_Toe2_03 0.000000 0.000000 0.000000 0.000000 0.000000 0.000000 10.000000 
L_Toe3_02 0.000000 0.000000 0.000000 0.000000 0.000000 0.000000 10.000000 
L_Toe3_03 0.000000 0.000000 0.000000 0.000000 0.000000 0.000000 10.000000 
planeLockWeightLeft 0.000000 0.000000 0.000000 0.000000 0.000000 0.000000 10.000000 
R_Leg01 0.000000 0.000000 0.000000 0.000000 0.000000 0.000000 10.000000 
R_Leg02 0.000000 0.000000 0.000000 0.000000 0.000000 0.000000 10.000000 
R_Leg03 0.000000 0.000000 0.000000 0.000000 0.000000 0.000000 10.000000 
R_Foot 0.000000 0.000000 0.000000 0.000000 0.000000 0.000000 10.000000 
planeAlignerRight 0.000000 0.000000 0.000000 0.000000 0.000000 0.000000 10.000000 
R_Toe1_01 0.000000 0.000000 0.000000 0.000000 0.000000 0.000000 10.000000 
R_Toe2_01 0.000000 0.000000 0.000000 0.000000 0.000000 0.000000 10.000000 
R_Toe3_01 0.000000 0.000000 0.000000 0.000000 0.000000 0.000000 10.000000 
planeLockWeightRight 0.000000 0.000000 0.000000 0.000000 0.000000 0.000000 10.000000 
R_Toe1_02 0.000000 0.000000 0.000000 0.000000 0.000000 0.000000 10.000000 
R_Toe1_03 0.000000 0.000000 0.000000 0.000000 0.000000 0.000000 10.000000 
R_Toe2_02 0.000000 0.000000 0.000000 0.000000 0.000000 0.000000 10.000000 
R_Toe2_03 0.000000 0.000000 0.000000 0.000000 0.000000 0.000000 10.000000 
R_Toe3_02 0.000000 0.000000 0.000000 0.000000 0.000000 0.000000 10.000000 
R_Toe3_03 0.000000 0.000000 0.000000 0.000000 0.000000 0.000000 10.000000 
Rear_Leg02 0.000000 0.000000 0.000000 0.000000 0.000000 0.000000 10.000000 
Rear_Leg03 0.000000 0.000000 0.000000 0.000000 0.000000 0.000000 10.000000 
Rear_Leg04 0.000000 0.000000 0.000000 0.000000 0.000000 0.000000 10.000000 
Rear_Foot 0.000000 0.000000 0.000000 0.000000 0.000000 0.000000 10.000000 
planeAlignerCenter 0.000000 0.000000 0.000000 0.000000 0.000000 0.000000 10.000000 
Rear_Toe1_01 0.000000 0.000000 0.000000 0.000000 0.000000 0.000000 10.000000 
Rear_Toe2_01 0.000000 0.000000 0.000000 0.000000 0.000000 0.000000 10.000000 
Rear_Toe3_01 0.000000 0.000000 0.000000 0.000000 0.000000 0.000000 10.000000 
planeLockWeightCenter 0.000000 0.000000 0.000000 0.000000 0.000000 0.000000 10.000000 
Rear_Toe1_02 0.000000 0.000000 0.000000 0.000000 0.000000 0.000000 10.000000 
Rear_Toe1_03 0.000000 0.000000 0.000000 0.000000 0.000000 0.000000 10.000000 
Rear_Toe2_02 0.000000 0.000000 0.000000 0.000000 0.000000 0.000000 10.000000 
Rear_Toe2_03 0.000000 0.000000 0.000000 0.000000 0.000000 0.000000 10.000000 
Rear_Toe3_02 0.000000 0.000000 0.000000 0.000000 0.000000 0.000000 10.000000 
Rear_Toe3_03 0.000000 0.000000 0.000000 0.000000 0.000000 0.000000 10.000000 
Back_Bone 0.000000 0.000000 0.000000 0.000000 0.000000 0.000000 10.000000 
Head 0.000000 0.000000 0.000000 0.000000 0.000000 0.000000 10.000000 
Motor_Bone 0.000000 0.000000 0.000000 0.000000 0.000000 0.000000 10.000000 
Ping_Mechanism 0.000000 0.000000 0.000000 0.000000 0.000000 0.000000 10.000000 
BN_LookIK 0.000000 0.000000 0.000000 0.000000 0.000000 0.000000 10.000000 
bottomMouth 0.000000 0.000000 0.000000 0.000000 0.000000 0.000000 10.000000 
L_Mouth01 0.000000 0.000000 0.000000 0.000000 0.000000 0.000000 10.000000 
L_mouthFront 0.000000 0.000000 0.000000 0.000000 0.000000 0.000000 10.000000 
mouthGun 0.000000 0.000000 0.000000 0.000000 0.000000 0.000000 10.000000 
R_Mouth01 0.000000 0.000000 0.000000 0.000000 0.000000 0.000000 10.000000 
R_mouthFront 0.000000 0.000000 0.000000 0.000000 0.000000 0.000000 10.000000 
TopMouth 0.000000 0.000000 0.000000 0.000000 0.000000 0.000000 10.000000 
weapon_bone 0.000000 0.000000 0.000000 0.000000 0.000000 0.000000 10.000000 
#Beginning of Data. Separated by tabs
#Fr	Tx	Ty	Tz	Rx	Ry	Rz	SF
[Pinger_Root]
17 0.000000 0.000000 0.000000 -0.000075 -0.000000 -0.000020 0.000000
18 0.000000 0.000000 0.000000 -0.000075 -0.000000 -0.000020 0.000000
19 0.000000 0.000000 0.000000 -0.000075 -0.000000 -0.000020 0.000000
[Pelvis]
17 1986.277954 -33.048359 3773.177246 16.464016 -74.655487 -23.028652 4264.183105
18 2025.626709 8.923246 3562.812012 -9.153021 -78.393105 3.426831 4098.398926
19 2060.192871 34.042736 3415.010254 -56.347813 -80.548447 51.003941 3988.464355
[L_Hip]
17 5.766392 125.831482 872.656799 160.158691 -45.484905 122.312202 881.701050
18 5.766392 125.831482 872.656799 160.158691 -45.484894 122.312202 881.701050
19 5.766392 125.831482 872.656799 160.158691 -45.484905 122.312202 881.701050
[R_Hip]
17 5.765438 125.836372 -872.654907 38.087841 49.812687 125.703735 881.699829
18 5.765438 125.836372 -872.654907 38.087841 49.812687 125.703735 881.699829
19 5.765438 125.836372 -872.654907 38.087841 49.812687 125.703735 881.699829
[Rear_Leg01]
17 -192.298416 -925.602966 -0.001907 173.068588 -15.651179 -155.006454 945.367432
18 -192.298416 -925.602966 -0.001907 171.472382 -19.519600 -158.637253 945.367432
19 -192.298416 -925.602966 -0.001907 169.032852 -23.965092 -160.875092 945.367432
[Spine1]
17 290.604584 5.007505 0.000477 -33.705296 23.221338 -43.446743 290.647736
18 290.604584 5.007505 0.000477 -33.214401 24.896503 -40.288597 290.647736
19 290.604584 5.007505 0.000477 -32.552837 26.117664 -36.386173 290.647736
[L_Leg01]
17 761.932007 -0.002384 -0.069261 26.655640 -9.306275 -39.273666 761.932068
18 761.932007 -0.002384 -0.069261 20.315346 -13.992569 -22.061024 761.932068
19 761.932007 -0.002384 -0.069261 13.757271 -15.481938 3.473079 761.932068
[L_Leg02]
17 1441.140503 -0.000954 -0.000715 -1.602419 0.391977 -68.749939 1441.140503
18 1441.140503 -0.000954 -0.000715 -1.159658 0.158958 -85.937988 1441.140503
19 1441.140503 -0.000954 -0.000715 0.468273 -0.074008 -107.842522 1441.140503
[L_Leg03]
17 1686.963989 -0.000715 -0.000954 0.026252 -0.006527 103.071571 1686.963989
18 1686.963989 -0.000715 -0.000954 -0.004567 0.000855 111.199715 1686.963989
19 1686.963989 -0.000715 -0.000954 -0.020829 0.008251 115.263062 1686.963989
[L_Foot]
17 3041.570068 -30.715107 11.297464 -6.749027 11.543072 24.737576 3041.746094
18 3041.570068 -30.715107 11.297464 -5.826644 11.155540 22.926971 3041.746094
19 3041.570068 -30.715107 11.297464 -4.956008 10.731874 24.300154 3041.746094
[L_Toe1_01]
17 -188.216690 -224.732346 -21.137953 94.084869 -5.863789 -176.542404 293.899567
18 -188.216690 -224.732346 -21.137953 94.080429 -5.922798 -176.460052 293.899567
19 -188.216690 -224.732346 -21.137953 94.053558 -5.987339 -176.113770 293.899567
[L_Toe2_01]
17 200.746536 -219.926590 148.838394 -92.138489 -26.155077 -47.778946 332.896027
18 200.746536 -219.926590 148.838394 -92.076469 -26.203741 -47.891479 332.896027
19 200.746536 -219.926590 148.838394 -91.907852 -26.206909 -48.284306 332.896027
[L_Toe3_01]
17 188.832520 -219.859131 -191.078659 -99.514030 16.041191 -63.149765 347.140900
18 188.832520 -219.859131 -191.078659 -99.504944 15.954741 -63.216091 347.140900
19 188.832520 -219.859131 -191.078659 -99.533455 15.795777 -63.583427 347.140900
[planeAlignerLeft]
17 0.812531 -811.448792 -0.314951 0.000000 -90.000000 -90.001900 811.449280
18 0.812531 -811.448792 -0.314951 0.000000 -90.000000 -90.001900 811.449280
19 0.812531 -811.448792 -0.314951 0.000000 -90.000000 -90.001900 811.449280
[L_Toe1_02]
17 413.761139 0.000477 0.000000 0.001385 -25.910418 0.001385 413.761139
18 413.761139 0.000477 0.000000 0.001385 -25.888083 0.001385 413.761139
19 413.761139 0.000477 0.000000 0.001385 -25.865753 0.001385 413.761139
[L_Toe1_03]
17 464.317322 0.000358 -0.000089 0.004369 58.834587 0.004369 464.317322
18 464.317322 0.000358 -0.000089 0.004353 58.721062 0.004353 464.317322
19 464.317322 0.000358 -0.000089 0.004303 58.346886 0.004303 464.317322
[L_Toe2_02]
17 342.235809 -0.000477 0.000238 0.001185 -74.311676 0.001185 342.235809
18 342.235809 -0.000477 0.000238 0.001185 -74.266182 0.001185 342.235809
19 342.235809 -0.000477 0.000238 0.001185 -74.220665 0.001185 342.235809
[L_Toe2_03]
17 420.210846 -0.000715 0.000000 -179.932388 89.049820 -179.928894 420.210846
18 420.210846 -0.000715 0.000000 -179.919098 89.202301 -179.915604 420.210846
19 420.210846 -0.000715 0.000000 0.000000 89.591217 0.003501 420.210846
[L_Toe3_02]
17 329.270111 0.000954 0.000000 0.001177 -81.628792 0.001177 329.270111
18 329.270111 0.000954 0.000000 0.001177 -81.677727 0.001177 329.270111
19 329.270111 0.000954 0.000000 0.001177 -81.530907 0.001177 329.270111
[L_Toe3_03]
17 439.137451 -0.001907 0.000954 -179.997787 73.445381 -179.994247 439.137451
18 439.137451 -0.001907 0.000954 -179.997772 73.476257 -179.994247 439.137451
19 439.137451 -0.001907 0.000954 -179.997665 73.877907 -179.994141 439.137451
[planeLockWeightLeft]
17 -0.000954 0.000238 -0.000305 -0.011826 -0.004376 0.005620 0.001029
18 -0.000954 0.000238 -0.000305 -0.011826 -0.004376 0.005620 0.001029
19 -0.000954 0.000238 -0.000305 -0.011826 -0.004376 0.005620 0.001029
[R_Leg01]
17 761.455627 -0.001907 -0.000358 129.241714 -25.041988 2.136150 761.455688
18 761.455627 -0.001907 -0.000358 136.171021 -31.993071 -7.949411 761.455688
19 761.455627 -0.001907 -0.000358 137.890778 -38.555454 -7.655985 761.455688
[R_Leg02]
17 1441.140625 0.000000 -0.000238 -3.376018 -1.514775 175.207092 1441.140625
18 1441.140625 0.000000 -0.000238 -3.584137 -1.616732 165.146301 1441.140625
19 1441.140625 0.000000 -0.000238 -3.629764 -1.630310 162.843201 1441.140625
[R_Leg03]
17 1686.963989 0.000954 0.001431 0.115261 -0.072115 142.256516 1686.963989
18 1686.963989 0.000954 0.001431 0.115255 -0.072124 142.265228 1686.963989
19 1686.963989 0.000954 0.001431 0.115250 -0.072132 142.273941 1686.963989
[R_Foot]
17 3041.560059 -30.531288 -11.204481 -13.057014 -23.450020 75.541664 3041.734131
18 3041.560059 -30.531288 -11.204481 -5.899917 -24.609074 74.596428 3041.734131
19 3041.560059 -30.531288 -11.204481 0.345193 -31.590574 73.156715 3041.734131
[planeAlignerRight]
17 -0.635147 -812.270569 -0.364304 0.000000 -89.960434 -90.005180 812.270874
18 -0.635147 -812.270569 -0.364304 0.000000 -89.960434 -90.005180 812.270874
19 -0.635147 -812.270569 -0.364304 0.000000 -89.960434 -90.005180 812.270874
[R_Toe1_01]
17 -188.383347 -224.864899 21.052242 77.096619 0.107517 -170.826035 294.101532
18 -188.383347 -224.864899 21.052242 77.088188 1.259447 -170.637955 294.101532
19 -188.383347 -224.864899 21.052242 77.053772 2.236320 -172.763275 294.101532
[R_Toe2_01]
17 200.637817 -220.002121 -148.787384 -91.048416 26.305384 -61.504585 332.857574
18 200.637817 -220.002121 -148.787384 -90.871613 28.155836 -60.167934 332.857574
19 200.637817 -220.002121 -148.787384 -90.562836 31.304922 -57.906078 332.857574
[R_Toe3_01]
17 188.606735 -220.092957 191.126343 -70.894577 -12.215652 -78.547798 347.192566
18 188.606735 -220.092957 191.126343 -71.337585 -11.603325 -77.216591 347.192566
19 188.606735 -220.092957 191.126343 -72.247398 -10.662017 -74.126572 347.192566
[planeLockWeightRight]
17 -0.000477 0.000000 0.000000 -0.011823 -0.004379 -0.000027 0.000477
18 -0.000477 0.000000 0.000000 -0.011823 -0.004379 -0.000027 0.000477
19 -0.000477 0.000000 0.000000 -0.011823 -0.004379 -0.000027 0.000477
[R_Toe1_02]
17 413.762085 0.000477 -0.000119 0.001386 -25.713543 0.001386 413.762085
18 413.762085 0.000477 -0.000119 0.001386 -25.754128 0.001386 413.762085
19 413.762085 0.000477 -0.000119 0.001384 -25.987553 0.001384 413.762085
[R_Toe1_03]
17 464.317810 0.000000 0.001088 0.003178 46.656788 0.003178 464.317810
18 464.317810 0.000000 0.001088 0.003210 47.115009 0.003210 464.317810
19 464.317810 0.000000 0.001088 0.003674 52.745537 0.003674 464.317810
[R_Toe2_02]
17 342.234741 -0.000954 0.000238 0.001194 -68.832214 0.001194 342.234741
18 342.234741 -0.000954 0.000238 0.001193 -69.569931 0.001193 342.234741
19 342.234741 -0.000954 0.000238 0.001191 -70.307549 0.001191 342.234741
[R_Toe2_03]
17 420.210846 0.000715 -0.000268 0.010366 76.997894 0.010366 420.210846
18 420.210846 0.000715 -0.000268 0.011711 78.497154 0.011711 420.210846
19 420.210846 0.000715 -0.000268 0.013858 80.283943 0.013858 420.210846
[R_Toe3_02]
17 329.270355 -0.000477 -0.000954 -0.002376 -65.695824 -0.002376 329.270355
18 329.270355 -0.000477 -0.000954 -0.010417 -69.517082 0.009249 329.270355
19 329.270355 -0.000477 -0.000954 0.001184 -74.468925 0.001184 329.270355
[R_Toe3_03]
17 439.137939 0.000238 0.001431 0.005565 65.652687 0.005565 439.137939
18 439.137939 0.000238 0.001431 0.007730 72.534912 0.007730 439.137939
19 439.137939 0.000238 0.001431 -0.011425 83.187759 -0.007922 439.137939
[Rear_Leg02]
17 1162.777710 -0.029802 0.005960 2.288701 -1.892644 -163.297531 1162.777710
18 1162.777710 -0.029802 0.005960 2.280582 -1.895809 -163.102432 1162.777710
19 1162.777710 -0.029802 0.005960 2.165587 -2.024809 -159.603165 1162.777710
[Rear_Leg03]
17 607.192505 -0.013351 -0.073195 0.010114 -0.005819 76.185005 607.192505
18 607.192505 -0.013351 -0.073195 0.010116 -0.005815 76.141006 607.192505
19 607.192505 -0.013351 -0.073195 0.010156 -0.005746 75.351585 607.192505
[Rear_Leg04]
17 995.874512 -0.020504 -0.011921 -0.042640 -0.018616 86.987457 995.874573
18 995.874512 -0.020504 -0.011921 -0.042617 -0.018669 86.844376 995.874573
19 995.874512 -0.020504 -0.011921 -0.045868 -0.016264 84.370415 995.874573
[Rear_Foot]
17 3096.176270 -0.067472 -0.041425 -175.221985 55.983562 8.727234 3096.176270
18 3096.176270 -0.067472 -0.041425 -175.459427 54.905899 10.840145 3096.176270
19 3096.176270 -0.067472 -0.041425 -175.496017 56.057484 14.148672 3096.176270
[planeAlignerCenter]
17 0.350077 0.966311 -838.790894 0.000009 0.000003 -179.999985 838.791565
18 0.350077 0.966311 -838.790894 0.000009 0.000003 -179.999985 838.791565
19 0.350077 0.966311 -838.790894 0.000009 0.000003 -179.999985 838.791565
[Rear_Toe1_01]
17 0.653352 83.966492 -371.173737 0.293665 41.913181 90.408173 380.553192
18 0.653352 83.966492 -371.173737 0.293674 41.913116 90.408203 380.553192
19 0.653352 83.966492 -371.173737 0.293683 41.913063 90.408226 380.553192
[Rear_Toe2_01]
17 178.200760 -294.826019 -362.060547 -7.196836 34.405910 -66.271400 499.765686
18 178.200760 -294.826019 -362.060547 -7.196871 34.405891 -66.271408 499.765686
19 178.200760 -294.826019 -362.060547 -7.196907 34.405869 -66.271416 499.765686
[Rear_Toe3_01]
17 -153.359680 -308.780914 -362.060852 3.289541 33.517120 -112.541138 499.952881
18 -153.359680 -308.780914 -362.060852 3.289542 33.517056 -112.541153 499.952881
19 -153.359680 -308.780914 -362.060852 3.289553 33.517006 -112.541153 499.952881
[planeLockWeightCenter]
17 -0.000062 0.000238 0.000000 -0.011814 -0.004373 -0.000015 0.000246
18 -0.000062 0.000238 0.000000 -0.011814 -0.004373 -0.000015 0.000246
19 -0.000062 0.000238 0.000000 -0.011814 -0.004373 -0.000015 0.000246
[Rear_Toe1_02]
17 379.707825 0.194073 0.000477 -0.000242 -31.677383 0.006934 379.707855
18 379.707825 0.194073 0.000477 -0.000242 -31.677423 0.006934 379.707855
19 379.707825 0.194073 0.000477 -0.000242 -31.677462 0.006934 379.707855
[Rear_Toe1_03]
17 500.129700 0.165701 0.000119 -0.000103 51.904541 0.007295 500.129761
18 500.129700 0.165701 0.000119 -0.000103 51.904675 0.007295 500.129761
19 500.129700 0.165701 0.000119 -0.000103 51.904800 0.007295 500.129761
[Rear_Toe2_02]
17 340.494507 0.000238 -0.000954 0.001192 -69.855270 0.001192 340.494507
18 340.494507 0.000238 -0.000954 0.001192 -69.855316 0.001192 340.494507
19 340.494507 0.000238 -0.000954 0.001192 -69.855377 0.001192 340.494507
[Rear_Toe2_03]
17 433.103577 0.000000 0.000238 0.006696 69.811058 0.006696 433.103546
18 433.103577 0.000000 0.000238 0.006696 69.811119 0.006696 433.103546
19 433.103577 0.000000 0.000238 0.006696 69.811180 0.006696 433.103546
[Rear_Toe3_02]
17 340.494141 -0.000358 -0.000477 0.008288 -67.275429 -0.009461 340.494171
18 340.494141 -0.000358 -0.000477 0.008288 -67.275513 -0.009461 340.494171
19 340.494141 -0.000358 -0.000477 0.008288 -67.275551 -0.009461 340.494171
[Rear_Toe3_03]
17 433.103577 0.001431 -0.000238 -0.000972 65.958984 -0.004547 433.103546
18 433.103577 0.001431 -0.000238 -0.000972 65.958984 -0.004547 433.103546
19 433.103577 0.001431 -0.000238 -0.000972 65.958984 -0.004547 433.103546
[Back_Bone]
17 1312.175781 -701.934692 0.000954 0.000023 -0.000007 -85.606667 1488.125488
18 1312.175781 -701.934692 0.000954 0.000023 -0.000007 -85.606667 1488.125488
19 1312.175781 -701.934692 0.000954 0.000023 -0.000007 -85.606667 1488.125488
[Head]
17 1406.159424 809.709290 0.001431 0.001610 9.695236 -11.373213 1622.625488
18 1406.159424 809.709290 0.001431 0.001432 8.848914 -6.738403 1622.625488
19 1406.159424 809.709290 0.001431 -0.001312 7.796372 3.739929 1622.625488
[Motor_Bone]
17 1158.364380 -417.834747 0.000477 -10.528146 0.084960 -71.732552 1231.419434
18 1158.364380 -417.834747 0.000477 -11.269273 1.781246 -76.620537 1231.419434
19 1158.364380 -417.834747 0.000477 -11.750057 3.832900 -82.137650 1231.419434
[Ping_Mechanism]
17 1229.994873 -421.494019 -7.009582 0.000103 -0.000053 82.120995 1300.228394
18 1230.654419 -422.468994 -7.161865 0.000103 -0.000053 82.120995 1301.169312
19 1231.313965 -423.443939 -7.314147 0.000103 -0.000053 82.120995 1302.110718
[BN_LookIK]
17 193.241119 1380.371704 -0.002861 0.000000 89.965736 -31.038179 1393.832153
18 193.241119 1380.371704 -0.002861 0.000000 89.965736 -31.038179 1393.832153
19 193.241119 1380.371704 -0.002861 0.000000 89.965736 -31.038179 1393.832153
[bottomMouth]
17 -435.092926 615.759399 -0.000954 -0.000022 0.000016 73.527184 753.966492
18 -435.092926 615.759399 -0.000954 -0.000022 0.000016 73.527184 753.966492
19 -435.092926 615.759399 -0.000954 -0.000022 0.000016 73.527184 753.966492
[L_Mouth01]
17 554.440979 7.658243 838.222046 150.204178 23.759130 109.605339 1005.027161
18 554.440979 7.658243 838.222046 150.204178 23.759130 109.605339 1005.027161
19 554.440979 7.658243 838.222046 150.204178 23.759130 109.605339 1005.027161
[L_mouthFront]
17 551.629089 934.514771 339.150421 0.000081 2.804060 79.119301 1136.941284
18 551.629089 934.514771 339.150421 0.000081 2.804060 79.119301 1136.941284
19 551.629089 934.514771 339.150421 0.000081 2.804060 79.119301 1136.941284
[mouthGun]
17 55.332661 1627.420898 0.000000 0.000023 0.000009 -11.038128 1628.361328
18 55.332661 1627.420898 0.000000 0.000023 0.000009 -11.038128 1628.361328
19 55.332661 1627.420898 0.000000 0.000023 0.000009 -11.038128 1628.361328
[R_Mouth01]
17 554.442383 7.659197 -838.223938 29.795891 -23.759109 109.605331 1005.029541
18 554.442383 7.659197 -838.223938 29.795891 -23.759109 109.605331 1005.029541
19 554.442383 7.659197 -838.223938 29.795891 -23.759109 109.605331 1005.029541
[R_mouthFront]
17 551.629089 934.514282 -339.151367 0.000029 -2.803930 79.119133 1136.941162
18 551.629089 934.514282 -339.151367 0.000029 -2.803930 79.119133 1136.941162
19 551.629089 934.514282 -339.151367 0.000029 -2.803930 79.119133 1136.941162
[TopMouth]
17 461.269867 -56.106091 -0.008583 -0.000059 -0.000268 92.025169 464.669525
18 461.269867 -56.106091 -0.008583 -0.000059 -0.000268 92.025169 464.669525
19 461.269867 -56.106091 -0.008583 -0.000059 -0.000268 92.025169 464.669525
[weapon_bone]
17 -987.239868 1448.372803 0.001431 0.000000 89.965736 -31.038221 1752.833740
18 -987.239868 1448.372803 0.001431 0.000000 89.965736 -31.038221 1752.833740
19 -987.239868 1448.372803 0.001431 0.000000 89.965736 -31.038221 1752.833740
